SplineFontDB: 3.0
FontName: Anton-Bold
FullName: Anton Bold
FamilyName: Anton
Weight: Bold
Copyright: Copyright (c) 2011 by vernon adams. All rights reserved.
Version: 1.000
FONDName: Anton
ItalicAngle: 0
UnderlinePosition: -205
UnderlineWidth: 102
Ascent: 1638
Descent: 410
LayerCount: 2
Layer: 0 0 "Back"  1
Layer: 1 0 "Fore"  0
NeedsXUIDChange: 1
FSType: 4
OS2Version: 0
OS2_WeightWidthSlopeOnly: 0
OS2_UseTypoMetrics: 0
CreationTime: 1297269531
ModificationTime: 1297270560
PfmFamily: 0
TTFWeight: 700
TTFWidth: 0
LineGap: 0
VLineGap: 0
Panose: 2 0 0 0 0 0 0 0 0 0
OS2TypoAscent: 2086
OS2TypoAOffset: 0
OS2TypoDescent: -631
OS2TypoDOffset: 0
OS2TypoLinegap: 0
OS2WinAscent: 2086
OS2WinAOffset: 0
OS2WinDescent: -631
OS2WinDOffset: 0
HheadAscent: 2086
HheadAOffset: 0
HheadDescent: -631
HheadDOffset: 0
OS2SubXSize: 1434
OS2SubYSize: 1331
OS2SubXOff: 0
OS2SubYOff: 287
OS2SupXSize: 1434
OS2SupYSize: 1331
OS2SupXOff: 0
OS2SupYOff: 977
OS2StrikeYSize: 102
OS2StrikeYPos: 512
OS2Vendor: 'newt'
OS2CodePages: 00000000.00000000
OS2UnicodeRanges: 00000000.00000000.00000000.00000000
DEI: 91125
LangName: 1033 "" "" "" "vernonadams: Anton Bold: 2011" "" "Version 1.000" "" "Anton Bold is a trademark of vernon adams." "vernon adams" "" "Copyright (c) 2011 by vernon adams. All rights reserved." "" "" "" "" "" "" "" "Anton Bold" 
PickledData: "(dp1
S'org.robofab.glyphOrder'
p2
(S'.notdef'
S'.null'
S'CR'
S'space'
S'E'
S'F'
S'G'
S'H'
S'I'
S'J'
S'K'
S'L'
S'M'
S'N'
S'O'
S'P'
S'Q'
S'R'
S'S'
S'T'
S'U'
S'a'
S'b'
S'c'
S'd'
S'e'
S'f'
S'g'
S'h'
S'i'
S'j'
S'k'
S'l'
S'm'
S'n'
S'o'
S'p'
S'q'
S'r'
S's'
S't'
S'u'
S'v'
S'w'
S'x'
S'y'
S'z'
S'zero'
S'one'
S'two'
S'three'
S'four'
S'five'
S'six'
S'seven'
S'eight'
S'nine'
S'V'
S'W'
S'X'
S'Y'
S'Z'
S'ampersand'
S'D'
S'A'
S'B'
S'C'
S'slash'
S'percent'
S'OE'
S'dollar'
S'period'
S'comma'
S'exclam'
S'parenleft'
S'parenright'
S'bracketleft'
S'bracketright'
S'paragraph'
S'trademark'
S'dagger'
S'daggerdbl'
S'florin'
S'semicolon'
S'colon'
S'equal'
S'question'
S'oe'

StartChar: A
Encoding: 65 65 2
Width: 1051
VWidth: 0
Flags: W
LayerCount: 2
Fore
SplineSet
801 1593 m 1
 250 1593 l 1
 70 0 l 1
 412 0 l 1
 434 240 l 1
 612 240 l 1
 637 0 l 1
 977 0 l 1
 801 1593 l 1
538 1294 m 1
 585 530 l 1
 459 530 l 1
 506 1294 l 1
 538 1294 l 1
EndSplineSet
EndChar

StartChar: AE
Encoding: 198 198 3
Width: 1361
VWidth: 0
Flags: W
LayerCount: 2
Fore
SplineSet
629 0 m 1
 1296 0 l 1
 1296 311 l 1
 987 311 l 1
 987 674 l 1
 1259 674 l 1
 1259 973 l 1
 987 973 l 1
 987 1284 l 1
 1273 1284 l 1
 1273 1593 l 1
 361 1593 l 1
 40 0 l 1
 381 0 l 1
 420 240 l 1
 628 240 l 1
 628 120 l 1
 629 0 l 1
624 1294 m 1
 624 530 l 1
 466 530 l 1
 596 1294 l 1
 624 1294 l 1
EndSplineSet
EndChar

StartChar: B
Encoding: 66 66 10
Width: 1012
VWidth: 0
Flags: W
LayerCount: 2
Fore
SplineSet
80 0 m 1
 557 0 l 2
 864 0 944 197 944 516 c 0
 944 643 935 841 744 887 c 1
 935 935 924 1118 924 1229 c 0
 924 1503 797 1593 557 1593 c 2
 80 1593 l 1
 80 0 l 1
424 745 m 1
 489 745 l 2
 563 745 596 700 596 598 c 2
 596 399 l 2
 596 312 536 281 459 281 c 0
 448 281 436 282 424 283 c 1
 424 745 l 1
424 993 m 1
 424 1346 l 1
 498 1346 l 2
 569 1346 573 1290 573 1270 c 2
 573 1112 l 2
 573 1065 569 993 496 993 c 0
 481 993 424 993 424 993 c 1
EndSplineSet
EndChar

StartChar: C
Encoding: 67 67 11
Width: 1016
VWidth: 0
Flags: W
LayerCount: 2
Fore
SplineSet
944 686 m 1
 588 686 l 1
 588 412 l 2
 588 311 539 291 504 291 c 0
 453 291 422 350 422 412 c 2
 422 1165 l 2
 422 1225 430 1284 504 1284 c 0
 575 1284 588 1206 588 1141 c 2
 588 956 l 1
 936 956 l 1
 936 1237 l 2
 936 1491 741 1606 504 1606 c 0
 203 1606 72 1446 72 1134 c 2
 72 395 l 2
 72 121 256 -18 496 -18 c 0
 766 -18 944 96 944 385 c 2
 944 686 l 1
EndSplineSet
EndChar

StartChar: D
Encoding: 68 68 14
Width: 1018
VWidth: 0
Flags: W
LayerCount: 2
Fore
SplineSet
76 0 m 1
 549 0 l 2
 832 0 944 162 944 473 c 1
 940 1217 l 2
 939 1436 837 1593 561 1593 c 2
 76 1593 l 1
 76 0 l 1
430 1311 m 1
 444 1312 457 1313 469 1313 c 0
 557 1313 592 1280 592 1161 c 2
 592 375 l 2
 592 301 538 290 491 290 c 0
 472 290 455 292 442 292 c 0
 437 292 433 292 430 291 c 1
 430 1311 l 1
EndSplineSet
EndChar

StartChar: E
Encoding: 69 69 16
Width: 872
VWidth: 0
Flags: W
LayerCount: 2
Fore
SplineSet
72 0 m 1
 799 0 l 1
 799 311 l 1
 430 311 l 1
 430 674 l 1
 762 674 l 1
 762 973 l 1
 430 973 l 1
 430 1284 l 1
 776 1284 l 1
 776 1593 l 1
 72 1593 l 1
 72 0 l 1
EndSplineSet
EndChar

StartChar: Euro
Encoding: 258 8364 21
Width: 1075
VWidth: 0
Flags: W
LayerCount: 2
Fore
SplineSet
0 942 m 1
 100 942 l 1
 100 791 l 1
 0 791 l 1
 0 559 l 1
 100 559 l 1
 100 482 l 2
 100 121 337 -18 566 -18 c 0
 779 -18 999 119 1002 475 c 1
 653 469 l 1
 653 447 l 2
 653 365 603 330 566 330 c 0
 529 330 479 365 479 447 c 2
 479 559 l 1
 794 559 l 1
 794 791 l 1
 479 791 l 1
 479 942 l 1
 794 942 l 1
 794 1166 l 1
 479 1166 l 1
 479 1273 l 2
 479 1338 480 1424 566 1424 c 0
 652 1424 653 1338 653 1273 c 2
 653 1246 l 1
 1002 1245 l 1
 997 1571 844 1729 566 1729 c 0
 266 1729 100 1567 100 1231 c 2
 100 1166 l 1
 0 1166 l 1
 0 942 l 1
EndSplineSet
EndChar

StartChar: F
Encoding: 70 70 22
Width: 829
VWidth: 0
Flags: W
LayerCount: 2
Fore
SplineSet
72 0 m 1
 426 0 l 1
 426 723 l 1
 758 723 l 1
 758 1030 l 1
 426 1030 l 1
 426 1282 l 1
 776 1282 l 1
 776 1593 l 1
 72 1593 l 1
 72 0 l 1
EndSplineSet
EndChar

StartChar: G
Encoding: 71 71 23
Width: 1010
VWidth: 0
Flags: W
LayerCount: 2
Fore
SplineSet
799 0 m 1
 739 135 l 1
 668 20 555 -18 449 -18 c 0
 170 -18 68 180 68 475 c 2
 68 1165 l 2
 68 1561 334 1606 504 1606 c 0
 905 1606 940 1364 940 1054 c 1
 604 1054 l 1
 604 1180 l 2
 604 1288 551 1296 520 1296 c 0
 422 1296 420 1243 420 1077 c 2
 420 461 l 2
 420 387 426 293 516 293 c 0
 592 293 604 356 604 469 c 2
 604 653 l 1
 510 653 l 1
 510 928 l 1
 936 928 l 1
 936 0 l 1
 799 0 l 1
EndSplineSet
EndChar

StartChar: H
Encoding: 72 72 24
Width: 1020
VWidth: 0
Flags: W
LayerCount: 2
Fore
SplineSet
424 723 m 1
 424 0 l 1
 74 0 l 1
 74 1593 l 1
 424 1593 l 1
 424 1024 l 1
 590 1024 l 1
 590 1593 l 1
 940 1593 l 1
 940 0 l 1
 590 0 l 1
 590 723 l 1
 424 723 l 1
EndSplineSet
EndChar

StartChar: I
Encoding: 73 73 25
Width: 498
VWidth: 0
Flags: W
LayerCount: 2
Fore
SplineSet
76 0 m 1
 416 0 l 1
 416 1593 l 1
 76 1593 l 1
 76 0 l 1
EndSplineSet
EndChar

StartChar: J
Encoding: 74 74 30
Width: 997
VWidth: 0
Flags: W
LayerCount: 2
Fore
SplineSet
500 -18 m 0
 745 -18 930 137 930 399 c 2
 930 1593 l 1
 575 1593 l 1
 575 496 l 2
 575 482 576 464 576 444 c 0
 576 382 567 305 496 305 c 0
 440 305 418 350 418 403 c 2
 418 752 l 1
 70 752 l 1
 70 352 l 2
 70 109 279 -18 500 -18 c 0
EndSplineSet
EndChar

StartChar: K
Encoding: 75 75 31
Width: 1053
VWidth: 0
Flags: W
LayerCount: 2
Fore
SplineSet
586 1593 m 1
 422 956 l 1
 422 1593 l 1
 74 1593 l 1
 74 0 l 1
 424 0 l 1
 424 772 l 1
 616 0 l 1
 981 0 l 1
 743 864 l 1
 940 1593 l 1
 586 1593 l 1
EndSplineSet
EndChar

StartChar: L
Encoding: 76 76 32
Width: 858
VWidth: 0
Flags: W
LayerCount: 2
Fore
SplineSet
70 0 m 1
 784 0 l 1
 784 311 l 1
 422 311 l 1
 422 1593 l 1
 70 1593 l 1
 70 0 l 1
EndSplineSet
EndChar

StartChar: Lslash
Encoding: 259 321 33
Width: 858
VWidth: 0
Flags: W
LayerCount: 2
Fore
SplineSet
0 509 m 1
 687 741 l 1
 687 973 l 1
 0 741 l 1
 0 509 l 1
EndSplineSet
Refer: 32 76 N 1 0 0 1 0 0 2
EndChar

StartChar: M
Encoding: 77 77 34
Width: 1528
VWidth: 0
Flags: W
LayerCount: 2
Fore
SplineSet
926 0 m 1
 610 0 l 1
 416 1149 l 1
 416 0 l 1
 78 0 l 1
 78 1593 l 1
 614 1593 l 1
 762 762 l 1
 909 1593 l 1
 1450 1593 l 1
 1450 0 l 1
 1108 0 l 1
 1108 1149 l 1
 926 0 l 1
EndSplineSet
EndChar

StartChar: N
Encoding: 78 78 35
Width: 1020
VWidth: 0
Flags: W
LayerCount: 2
Fore
SplineSet
940 1593 m 1
 600 1593 l 1
 600 831 l 1
 438 1593 l 1
 76 1593 l 1
 76 0 l 1
 420 0 l 1
 420 797 l 1
 596 0 l 1
 940 0 l 1
 940 1593 l 1
EndSplineSet
EndChar

StartChar: O
Encoding: 79 79 37
Width: 1004
VWidth: 0
Flags: W
LayerCount: 2
Fore
SplineSet
506 -18 m 0
 193 -18 72 178 72 430 c 2
 72 1189 l 2
 72 1447 207 1607 506 1607 c 0
 805 1607 940 1447 940 1189 c 2
 940 430 l 2
 940 178 819 -18 506 -18 c 0
506 297 m 0
 590 297 586 412 586 473 c 2
 586 1113 l 2
 586 1182 597 1295 506 1295 c 0
 412 1295 420 1178 420 1117 c 2
 420 477 l 2
 420 416 420 297 506 297 c 0
EndSplineSet
EndChar

StartChar: OE
Encoding: 260 338 38
Width: 1367
VWidth: 0
Flags: W
LayerCount: 2
Fore
SplineSet
1302 0 m 1
 1302 311 l 1
 942 311 l 1
 942 674 l 1
 1265 674 l 1
 1265 973 l 1
 942 973 l 1
 942 1284 l 1
 1279 1284 l 1
 1279 1593 l 1
 609 1593 l 2
 267 1593 61 1485 61 1189 c 2
 61 430 l 2
 61 139 251 0 617 0 c 2
 1302 0 l 1
409 477 m 2
 409 1147 l 2
 409 1249 466 1289 530 1289 c 0
 548 1289 567 1286 585 1280 c 1
 585 322 l 1
 565 313 544 308 524 308 c 0
 463 308 409 355 409 477 c 2
EndSplineSet
EndChar

StartChar: P
Encoding: 80 80 45
Width: 981
VWidth: 0
Flags: W
LayerCount: 2
Fore
SplineSet
80 0 m 1
 426 0 l 1
 426 631 l 1
 569 631 l 2
 862 631 936 815 936 1110 c 0
 936 1481 780 1593 545 1593 c 2
 80 1593 l 1
 80 0 l 1
426 1303 m 1
 465 1303 l 2
 555 1303 588 1257 588 1116 c 0
 588 922 537 918 446 918 c 2
 426 918 l 1
 426 1303 l 1
EndSplineSet
EndChar

StartChar: Q
Encoding: 81 81 46
Width: 1063
VWidth: 0
Flags: W
LayerCount: 2
Fore
SplineSet
506 -18 m 0
 537 -18 567 -12 594 -8 c 1
 874 -170 l 1
 993 20 l 1
 842 109 l 1
 909 186 940 293 940 418 c 2
 940 1186 l 2
 940 1444 805 1606 506 1606 c 0
 207 1606 72 1444 72 1186 c 2
 72 418 l 2
 72 166 193 -18 506 -18 c 0
506 299 m 0
 420 299 420 418 420 479 c 2
 420 1114 l 2
 420 1175 410 1292 504 1292 c 0
 595 1292 586 1178 586 1110 c 2
 586 475 l 2
 586 414 590 299 506 299 c 0
EndSplineSet
EndChar

StartChar: R
Encoding: 82 82 47
Width: 1001
VWidth: 0
Flags: W
LayerCount: 2
Fore
SplineSet
428 725 m 1
 514 725 561 723 561 621 c 2
 561 0 l 1
 905 0 l 1
 909 205 909 401 909 600 c 0
 909 684 895 803 758 829 c 1
 928 881 932 1032 932 1147 c 0
 932 1405 895 1593 612 1593 c 2
 72 1593 l 1
 72 0 l 1
 72 0 385 0 428 0 c 1
 428 725 l 1
430 1298 m 1
 449 1298 l 2
 557 1298 588 1280 588 1147 c 0
 588 1094 584 1001 518 1001 c 2
 430 1001 l 1
 430 1298 l 1
EndSplineSet
EndChar

StartChar: S
Encoding: 83 83 48
Width: 995
VWidth: 0
Flags: W
LayerCount: 2
Fore
SplineSet
520 -18 m 0
 848 -18 930 199 930 465 c 0
 930 557 930 729 715 903 c 2
 502 1075 l 2
 414 1146 403 1197 403 1223 c 0
 403 1270 442 1300 487 1300 c 0
 522 1300 557 1268 559 1231 c 1
 561 1135 l 1
 918 1135 l 1
 918 1503 748 1607 473 1607 c 0
 231 1607 66 1481 66 1188 c 0
 66 1044 140 929 246 838 c 2
 395 709 l 2
 544 580 582 534 582 408 c 0
 582 344 551 299 498 299 c 0
 420 299 414 399 414 453 c 2
 414 596 l 1
 66 596 l 1
 66 440 l 2
 66 137 184 -18 520 -18 c 0
EndSplineSet
EndChar

StartChar: T
Encoding: 84 84 50
Width: 903
VWidth: 0
Flags: W
LayerCount: 2
Fore
SplineSet
66 1593 m 1
 66 1286 l 1
 275 1286 l 1
 275 0 l 1
 627 0 l 1
 627 1286 l 1
 836 1286 l 1
 836 1593 l 1
 66 1593 l 1
EndSplineSet
EndChar

StartChar: Thorn
Encoding: 222 222 51
Width: 942
VWidth: 0
Flags: W
LayerCount: 2
Fore
SplineSet
67 0 m 1
 413 0 l 1
 413 336 l 1
 556 336 l 2
 849 336 923 544 923 875 c 0
 923 1294 767 1418 532 1418 c 2
 412 1418 l 1
 412 1593 l 1
 67 1593 l 1
 67 0 l 1
413 1128 m 1
 452 1128 l 2
 542 1128 575 1070 575 881 c 0
 575 627 524 623 433 623 c 2
 413 623 l 1
 413 1128 l 1
EndSplineSet
EndChar

StartChar: U
Encoding: 85 85 52
Width: 1014
VWidth: 0
Flags: W
LayerCount: 2
Fore
SplineSet
504 -18 m 0
 203 -18 76 141 76 422 c 2
 76 1593 l 1
 418 1593 l 1
 418 453 l 2
 418 393 414 285 504 285 c 0
 594 285 590 393 590 453 c 2
 590 1593 l 1
 932 1593 l 1
 932 422 l 2
 932 141 805 -18 504 -18 c 0
EndSplineSet
EndChar

StartChar: V
Encoding: 86 86 57
Width: 1028
VWidth: 0
Flags: W
LayerCount: 2
Fore
SplineSet
756 0 m 1
 276 0 l 1
 59 1593 l 1
 414 1593 l 1
 513 537 l 1
 618 1593 l 1
 973 1593 l 1
 756 0 l 1
EndSplineSet
EndChar

StartChar: W
Encoding: 87 87 58
Width: 1532
VWidth: 0
Flags: W
LayerCount: 2
Fore
SplineSet
505 588 m 1
 408 1593 l 1
 64 1593 l 1
 253 0 l 1
 682 0 l 1
 766 768 l 1
 854 0 l 1
 1276 0 l 1
 1468 1593 l 1
 1120 1593 l 1
 1026 588 l 1
 932 1593 l 1
 604 1593 l 1
 505 588 l 1
EndSplineSet
EndChar

StartChar: X
Encoding: 88 88 59
Width: 1067
VWidth: 0
Flags: W
LayerCount: 2
Fore
SplineSet
534 623 m 1
 420 0 l 1
 63 0 l 1
 252 846 l 1
 102 1593 l 1
 446 1593 l 1
 537 1049 l 1
 618 1593 l 1
 963 1593 l 1
 813 846 l 1
 1001 0 l 1
 645 0 l 1
 534 623 l 1
EndSplineSet
EndChar

StartChar: Y
Encoding: 89 89 60
Width: 1022
VWidth: 0
Flags: W
LayerCount: 2
Fore
SplineSet
674 0 m 1
 342 0 l 1
 342 524 l 1
 61 1593 l 1
 410 1593 l 1
 508 1053 l 1
 606 1593 l 1
 954 1593 l 1
 674 524 l 1
 674 0 l 1
EndSplineSet
EndChar

StartChar: Z
Encoding: 90 90 62
Width: 954
VWidth: 0
Flags: W
LayerCount: 2
Fore
SplineSet
70 0 m 1
 866 0 l 1
 866 307 l 1
 453 307 l 1
 883 1296 l 1
 883 1593 l 1
 109 1593 l 1
 109 1284 l 1
 492 1284 l 1
 70 303 l 1
 70 0 l 1
EndSplineSet
EndChar

StartChar: a
Encoding: 97 97 64
Width: 1018
VWidth: 0
Flags: W
LayerCount: 2
Fore
SplineSet
61 430 m 0
 61 49 201 -18 365 -18 c 0
 469 -18 565 73 588 156 c 1
 588 0 l 1
 944 0 l 1
 944 1143 l 2
 944 1413 721 1518 524 1518 c 0
 200 1518 83 1383 83 1105 c 0
 83 1089 83 1073 84 1056 c 1
 432 1056 l 1
 432 1157 l 2
 432 1204 453 1239 506 1239 c 0
 582 1239 582 1167 583 980 c 1
 206 851 61 816 61 430 c 0
426 570 m 2
 426 648 449 721 582 774 c 1
 582 379 l 2
 582 336 569 262 506 262 c 0
 455 262 426 299 426 395 c 2
 426 570 l 2
EndSplineSet
EndChar

StartChar: acute
Encoding: 180 180 67
Width: 650
VWidth: 0
Flags: W
LayerCount: 2
Fore
SplineSet
67 1592 m 1
 583 1682 l 1
 523 1894 l 1
 27 1712 l 1
 67 1592 l 1
EndSplineSet
EndChar

StartChar: ae
Encoding: 230 230 69
Width: 1524
VWidth: 0
Flags: W
LayerCount: 2
Fore
SplineSet
1054 -18 m 0
 1390 -18 1464 182 1464 494 c 2
 1464 579 l 1
 1108 579 l 1
 1109 575 1110 501 1110 483 c 0
 1110 391 1107 260 1026 260 c 0
 940 260 939 434 939 494 c 2
 939 704 l 1
 1460 704 l 1
 1463 761 1464 890 1464 983 c 2
 1464 1092 l 2
 1464 1395 1301 1518 1032 1518 c 0
 926 1518 826 1489 765 1396 c 1
 701 1491 603 1518 519 1518 c 0
 195 1518 78 1383 78 1105 c 0
 78 1089 78 1073 79 1056 c 1
 427 1056 l 1
 427 1157 l 2
 427 1204 448 1239 501 1239 c 0
 577 1239 577 1167 578 980 c 1
 201 851 56 816 56 430 c 0
 56 49 323 -18 467 -18 c 0
 699 -18 766 148 766 148 c 1
 766 148 835 -18 1054 -18 c 0
421 570 m 2
 421 648 444 721 577 774 c 1
 577 379 l 2
 577 336 564 262 501 262 c 0
 450 262 421 299 421 395 c 2
 421 570 l 2
1028 1249 m 0
 1098 1249 1108 1151 1108 1087 c 2
 1108 931 l 1
 939 931 l 1
 939 1052 l 2
 939 1211 961 1249 1028 1249 c 0
EndSplineSet
EndChar

StartChar: ampersand
Encoding: 38 38 71
Width: 1110
VWidth: 0
Flags: W
LayerCount: 2
Fore
SplineSet
70 386 m 0
 70 96 231 -21 391 -21 c 0
 488 -21 584 22 645 97 c 1
 682 0 l 1
 1022 0 l 1
 843 432 l 1
 884 544 948 671 1040 744 c 1
 901 961 l 1
 824 904 767 823 729 726 c 1
 666 875 l 1
 856 1027 901 1164 901 1273 c 0
 901 1487 723 1582 556 1582 c 0
 370 1582 208 1477 208 1262 c 0
 208 1163 254 1027 308 921 c 1
 74 750 70 552 70 386 c 0
376 423 m 0
 376 566 426 625 426 625 c 1
 548 334 l 1
 548 334 522 235 447 235 c 0
 370 235 376 374 376 423 c 0
532 1273 m 0
 532 1305 551 1336 586 1336 c 0
 627 1336 645 1310 645 1273 c 0
 645 1173 575 1110 575 1110 c 1
 575 1110 532 1219 532 1273 c 0
EndSplineSet
EndChar

StartChar: asciicircum
Encoding: 94 94 74
Width: 970
VWidth: 0
Flags: W
LayerCount: 2
Fore
SplineSet
689 1355 m 1
 281 1355 l 1
 40 432 l 1
 399 432 l 1
 485 1027 l 1
 571 432 l 1
 930 432 l 1
 689 1355 l 1
EndSplineSet
EndChar

StartChar: asciitilde
Encoding: 126 126 75
Width: 1015
VWidth: 0
Flags: W
LayerCount: 2
Fore
SplineSet
360 886 m 0
 334 886 308 868 282 807 c 1
 40 923 l 1
 119 1119 225 1222 370 1222 c 0
 477 1222 561 1114 653 1114 c 0
 678 1114 705 1132 732 1193 c 1
 974 1077 l 1
 894 881 787 776 642 776 c 0
 521 776 449 886 360 886 c 0
EndSplineSet
EndChar

StartChar: asterisk
Encoding: 42 42 76
Width: 922
VWidth: 0
Flags: W
LayerCount: 2
Fore
SplineSet
150 1480 m 1
 34 1280 l 1
 308 1171 l 1
 34 1054 l 1
 150 854 l 1
 389 1043 l 1
 345 741 l 1
 577 741 l 1
 541 1036 l 1
 772 854 l 1
 888 1054 l 1
 613 1171 l 1
 888 1280 l 1
 772 1480 l 1
 542 1307 l 1
 577 1593 l 1
 345 1593 l 1
 388 1301 l 1
 150 1480 l 1
EndSplineSet
EndChar

StartChar: at
Encoding: 64 64 77
Width: 1833
VWidth: 0
Flags: W
LayerCount: 2
Fore
SplineSet
832 718 m 0
 832 876 832 972 988 972 c 1
 988 687 l 2
 988 644 975 570 912 570 c 0
 861 570 832 622 832 718 c 0
1161 224 m 1
 1060 213 967 206 885 206 c 0
 552 206 368 306 368 723 c 0
 368 1330 697 1365 1025 1365 c 0
 1406 1365 1505 1109 1505 888 c 0
 1505 681 1460 497 1391 497 c 0
 1352 497 1310 543 1310 621 c 2
 1310 1226 l 1
 1049 1226 l 1
 1009 1114 l 1
 933 1181 861 1209 796 1209 c 0
 619 1209 497 1056 497 718 c 0
 497 425 629 326 758 326 c 0
 868 326 969 367 1014 494 c 1
 1062 337 1172 268 1375 268 c 0
 1639 268 1791 478 1791 867 c 0
 1791 1237 1588 1630 1022 1630 c 0
 435 1630 51 1446 51 726 c 0
 51 210 306 -64 880 -64 c 0
 979 -64 1087 -54 1205 -37 c 1
 1161 224 l 1
EndSplineSet
EndChar

StartChar: b
Encoding: 98 98 79
Width: 1008
VWidth: 0
Flags: W
LayerCount: 2
Fore
SplineSet
435 160 m 1
 492 6 585 -18 646 -18 c 0
 718 -18 962 8 962 391 c 2
 962 1114 l 2
 962 1512 730 1519 635 1519 c 0
 592 1519 521 1515 435 1427 c 1
 435 1769 l 1
 67 1769 l 1
 67 0 l 1
 435 0 l 1
 435 160 l 1
435 1085 m 2
 435 1219 482 1239 523 1239 c 0
 568 1239 599 1214 599 1081 c 2
 599 457 l 2
 599 297 583 263 525 263 c 0
 470 263 435 297 435 457 c 2
 435 1085 l 2
EndSplineSet
EndChar

StartChar: backslash
Encoding: 92 92 80
Width: 812
VWidth: 0
Flags: W
LayerCount: 2
Fore
SplineSet
430 0 m 1
 19 1767 l 1
 383 1767 l 1
 793 0 l 1
 430 0 l 1
EndSplineSet
EndChar

StartChar: bar
Encoding: 124 124 81
Width: 457
VWidth: 0
Flags: W
LayerCount: 2
Fore
SplineSet
386 -84 m 1
 386 1683 l 1
 67 1683 l 1
 67 -84 l 1
 386 -84 l 1
EndSplineSet
EndChar

StartChar: braceleft
Encoding: 123 123 82
Width: 720
VWidth: 0
Flags: W
LayerCount: 2
Fore
SplineSet
163 1225 m 0
 163 1011 167 965 24 936 c 1
 24 669 l 1
 167 639 163 588 163 370 c 0
 163 117 339 -9 654 -18 c 1
 654 249 l 1
 511 258 515 304 515 338 c 0
 515 651 455 706 345 802 c 1
 455 900 515 955 515 1272 c 0
 515 1306 518 1347 654 1356 c 1
 654 1623 l 1
 339 1614 163 1483 163 1225 c 0
EndSplineSet
EndChar

StartChar: braceright
Encoding: 125 125 83
Width: 721
VWidth: 0
Flags: W
LayerCount: 2
Fore
SplineSet
558 1225 m 0
 558 1011 554 965 697 936 c 1
 697 669 l 1
 554 639 558 588 558 370 c 0
 558 117 382 -9 67 -18 c 1
 67 249 l 1
 210 258 206 304 206 338 c 0
 206 651 266 706 376 802 c 1
 266 900 206 955 206 1272 c 0
 206 1306 203 1347 67 1356 c 1
 67 1623 l 1
 382 1614 558 1483 558 1225 c 0
EndSplineSet
EndChar

StartChar: bracketleft
Encoding: 91 91 84
Width: 688
VWidth: 0
Flags: W
LayerCount: 2
Fore
SplineSet
419 1312 m 1
 621 1312 l 1
 621 1593 l 1
 67 1593 l 1
 67 0 l 1
 621 0 l 1
 621 281 l 1
 419 281 l 1
 419 1312 l 1
EndSplineSet
EndChar

StartChar: bracketright
Encoding: 93 93 85
Width: 688
VWidth: 0
Flags: W
LayerCount: 2
Fore
SplineSet
269 1312 m 1
 67 1312 l 1
 67 1593 l 1
 621 1593 l 1
 621 0 l 1
 67 0 l 1
 67 281 l 1
 269 281 l 1
 269 1312 l 1
EndSplineSet
EndChar

StartChar: breve
Encoding: 265 728 86
Width: 1015
VWidth: 0
Flags: HW
LayerCount: 2
Fore
SplineSet
582 1832 m 4
 516 1832 467 1863 467 1944 c 4
 467 1945 151 1945 151 1945 c 5
 149 1931 148 1916 148 1903 c 4
 148 1712 310 1592 580 1592 c 4
 856 1592 1015 1714 1015 1910 c 4
 1015 1921 1014 1933 1013 1945 c 5
 1013 1945 697 1945 697 1944 c 4
 697 1863 648 1832 582 1832 c 4
EndSplineSet
EndChar

StartChar: brokenbar
Encoding: 166 166 87
Width: 457
VWidth: 0
Flags: W
LayerCount: 2
Fore
SplineSet
386 -84 m 1
 386 676 l 1
 67 676 l 1
 67 -84 l 1
 386 -84 l 1
386 923 m 1
 386 1683 l 1
 67 1683 l 1
 67 923 l 1
 386 923 l 1
EndSplineSet
EndChar

StartChar: bullet
Encoding: 266 8226 88
Width: 725
VWidth: 0
Flags: W
LayerCount: 2
Fore
SplineSet
49 741 m 0
 49 534 167 403 362 403 c 0
 558 403 676 534 676 741 c 0
 676 948 558 1079 362 1079 c 0
 167 1079 49 948 49 741 c 0
EndSplineSet
EndChar

StartChar: c
Encoding: 99 99 89
Width: 1036
VWidth: 0
Flags: W
LayerCount: 2
Fore
SplineSet
72 492 m 2
 72 268 111 -18 535 -18 c 0
 784 -18 965 127 965 379 c 2
 965 614 l 1
 600 614 l 1
 602 389 l 2
 603 281 546 264 518 264 c 0
 449 264 432 340 432 387 c 2
 432 1114 l 2
 432 1219 479 1239 520 1239 c 0
 590 1239 600 1176 600 1116 c 2
 600 879 l 1
 965 879 l 1
 965 1135 l 2
 965 1380 780 1518 530 1518 c 0
 199 1518 72 1358 72 954 c 2
 72 492 l 2
EndSplineSet
EndChar

StartChar: caron
Encoding: 267 711 90
Width: 970
VWidth: 0
Flags: W
LayerCount: 2
Fore
SplineSet
689 1591 m 1
 281 1591 l 1
 40 1994 l 1
 399 1994 l 1
 485 1709 l 1
 571 1994 l 1
 930 1994 l 1
 689 1591 l 1
EndSplineSet
EndChar

StartChar: cedilla
Encoding: 184 184 92
Width: 1015
VWidth: 0
Flags: W
LayerCount: 2
Fore
SplineSet
306 -591 m 1
 371 -618 439 -631 504 -631 c 0
 691 -631 852 -522 852 -330 c 0
 852 -213 765 -100 588 -76 c 1
 588 0 l 1
 377 0 l 1
 377 -106 l 1
 483 -128 537 -210 537 -279 c 0
 537 -360 488 -391 422 -391 c 0
 386 -391 346 -382 306 -368 c 1
 306 -591 l 1
EndSplineSet
EndChar

StartChar: cent
Encoding: 162 162 93
Width: 1036
VWidth: 0
Flags: W
LayerCount: 2
Fore
SplineSet
446 -113 m 1
 619 -113 l 1
 619 -12 l 1
 823 17 965 156 965 379 c 2
 965 614 l 1
 600 614 l 1
 602 389 l 2
 603 281 546 264 518 264 c 0
 449 264 432 340 432 387 c 2
 432 1114 l 2
 432 1219 479 1239 520 1239 c 0
 590 1239 600 1176 600 1116 c 2
 600 879 l 1
 965 879 l 1
 965 1135 l 2
 965 1350 822 1482 619 1511 c 1
 619 1607 l 1
 446 1607 l 1
 446 1514 l 1
 177 1487 72 1322 72 954 c 2
 72 492 l 2
 72 285 105 24 446 -13 c 1
 446 -113 l 1
EndSplineSet
EndChar

StartChar: circumflex
Encoding: 268 710 94
Width: 970
VWidth: 0
Flags: W
LayerCount: 2
Fore
SplineSet
689 1994 m 1
 281 1994 l 1
 40 1591 l 1
 399 1591 l 1
 485 1876 l 1
 571 1591 l 1
 930 1591 l 1
 689 1994 l 1
EndSplineSet
EndChar

StartChar: colon
Encoding: 58 58 95
Width: 491
VWidth: 0
Flags: W
LayerCount: 2
Fore
SplineSet
67 237 m 1
 425 237 l 1
 425 535 l 1
 67 535 l 1
 67 237 l 1
67 976 m 1
 425 976 l 1
 425 1274 l 1
 67 1274 l 1
 67 976 l 1
EndSplineSet
EndChar

StartChar: comma
Encoding: 44 44 96
Width: 479
VWidth: 0
Flags: W
LayerCount: 2
Fore
SplineSet
52 1 m 1
 179 1 l 1
 113 -235 l 1
 324 -235 l 1
 426 10 l 1
 426 299 l 1
 52 299 l 1
 52 1 l 1
EndSplineSet
EndChar

StartChar: copyright
Encoding: 169 169 97
Width: 1406
VWidth: 0
Flags: W
LayerCount: 2
Fore
SplineSet
205 862 m 0
 205 1152 429 1390 703 1390 c 0
 977 1390 1201 1152 1201 862 c 0
 1201 572 977 334 703 334 c 0
 429 334 205 572 205 862 c 0
46 862 m 0
 46 499 340 205 703 205 c 0
 1066 205 1360 499 1360 862 c 0
 1360 1225 1066 1519 703 1519 c 0
 340 1519 46 1225 46 862 c 0
940 806 m 1
 747 806 l 1
 747 657 l 2
 747 603 720 592 701 592 c 0
 674 592 657 624 657 657 c 2
 657 1066 l 2
 657 1098 661 1130 701 1130 c 0
 740 1130 747 1088 747 1053 c 2
 747 952 l 1
 936 952 l 1
 936 1105 l 2
 936 1243 830 1305 701 1305 c 0
 538 1305 467 1218 467 1049 c 2
 467 648 l 2
 467 499 567 424 697 424 c 0
 843 424 940 486 940 643 c 2
 940 806 l 1
EndSplineSet
EndChar

StartChar: currency
Encoding: 164 164 98
Width: 1017
VWidth: 0
Flags: W
LayerCount: 2
Fore
SplineSet
508 545 m 0
 593 545 665 564 724 597 c 1
 813 509 l 1
 963 658 l 1
 873 748 l 1
 909 813 927 888 927 964 c 0
 927 1039 909 1114 873 1179 c 1
 963 1269 l 1
 813 1418 l 1
 726 1331 l 1
 666 1364 594 1385 508 1385 c 0
 422 1385 350 1364 290 1330 c 1
 203 1418 l 1
 54 1268 l 1
 144 1178 l 1
 109 1113 92 1038 92 964 c 0
 92 889 110 815 145 750 c 1
 54 659 l 1
 203 509 l 1
 292 598 l 1
 351 564 423 545 508 545 c 0
508 1186 m 0
 647 1186 717 1082 717 966 c 0
 717 854 647 741 508 741 c 0
 370 741 300 852 300 964 c 0
 300 1075 370 1186 508 1186 c 0
EndSplineSet
EndChar

StartChar: d
Encoding: 100 100 99
Width: 1030
VWidth: 0
Flags: W
LayerCount: 2
Fore
SplineSet
68 477 m 1
 68 205 92 -18 375 -18 c 0
 457 -18 543 12 598 159 c 1
 598 0 l 1
 956 0 l 1
 956 1767 l 1
 598 1767 l 1
 598 1767 598 1527 598 1419 c 1
 543 1493 455 1518 381 1518 c 0
 170 1518 72 1341 72 1153 c 1
 68 477 l 1
426 1083 m 2
 426 1151 434 1239 514 1239 c 0
 590 1239 598 1130 598 1083 c 2
 598 520 l 2
 598 444 609 264 512 264 c 0
 434 264 425 380 425 460 c 0
 425 485 426 507 426 520 c 2
 426 1083 l 2
EndSplineSet
EndChar

StartChar: dagger
Encoding: 269 8224 100
Width: 780
VWidth: 0
Flags: W
LayerCount: 2
Fore
SplineSet
573 0 m 1
 573 996 l 1
 753 996 l 1
 753 1292 l 1
 573 1292 l 1
 573 1592 l 1
 209 1592 l 1
 209 1292 l 1
 26 1292 l 1
 26 996 l 1
 209 996 l 1
 209 0 l 1
 573 0 l 1
EndSplineSet
EndChar

StartChar: daggerdbl
Encoding: 270 8225 101
Width: 795
VWidth: 0
Flags: W
LayerCount: 2
Fore
SplineSet
581 1592 m 1
 581 1236 l 1
 761 1236 l 1
 761 940 l 1
 581 940 l 1
 581 646 l 1
 761 646 l 1
 761 350 l 1
 581 350 l 1
 581 0 l 1
 217 0 l 1
 217 350 l 1
 34 350 l 1
 34 646 l 1
 217 646 l 1
 217 940 l 1
 34 940 l 1
 34 1236 l 1
 217 1236 l 1
 217 1592 l 1
 581 1592 l 1
EndSplineSet
EndChar

StartChar: degree
Encoding: 176 176 102
Width: 804
VWidth: 0
Flags: W
LayerCount: 2
Fore
SplineSet
261 1269 m 0
 261 1345 305 1426 403 1426 c 0
 501 1426 545 1345 545 1269 c 0
 545 1193 501 1112 403 1112 c 0
 305 1112 261 1193 261 1269 c 0
49 1269 m 0
 49 1062 183 931 402 931 c 0
 622 931 756 1062 756 1269 c 0
 756 1476 622 1607 402 1607 c 0
 183 1607 49 1476 49 1269 c 0
EndSplineSet
EndChar

StartChar: dieresis
Encoding: 168 168 103
Width: 976
VWidth: 0
Flags: W
LayerCount: 2
Fore
SplineSet
67 1591 m 1
 425 1591 l 1
 425 1889 l 1
 67 1889 l 1
 67 1591 l 1
551 1591 m 1
 909 1591 l 1
 909 1889 l 1
 551 1889 l 1
 551 1591 l 1
EndSplineSet
EndChar

StartChar: dollar
Encoding: 36 36 105
Width: 949
VWidth: 0
Flags: W
LayerCount: 2
Fore
SplineSet
386 -113 m 1
 559 -113 l 1
 559 34 l 1
 792 61 913 228 913 413 c 0
 913 532 863 658 762 758 c 2
 482 1034 l 2
 401 1114 383 1156 383 1182 c 0
 383 1229 422 1259 467 1259 c 0
 508 1259 546 1227 549 1190 c 1
 551 1105 l 1
 908 1105 l 1
 908 1378 777 1533 559 1561 c 1
 559 1679 l 1
 386 1679 l 1
 386 1558 l 1
 179 1521 54 1369 54 1192 c 0
 54 1080 103 958 212 849 c 2
 500 560 l 1
 538 518 562 482 562 456 c 0
 562 392 531 347 478 347 c 0
 391 347 384 447 384 501 c 2
 384 543 l 1
 36 543 l 1
 36 488 l 2
 36 218 129 66 386 36 c 1
 386 -113 l 1
EndSplineSet
EndChar

StartChar: dotaccent
Encoding: 271 729 106
Width: 491
VWidth: 0
Flags: HW
LayerCount: 2
Fore
SplineSet
67 1 m 1
 425 1 l 1
 425 299 l 1
 67 299 l 1
 67 1 l 1
EndSplineSet
EndChar

StartChar: dotlessi
Encoding: 272 305 107
Width: 514
VWidth: 0
Flags: W
LayerCount: 2
Fore
SplineSet
78 0 m 1
 436 0 l 1
 436 1500 l 1
 78 1500 l 1
 78 0 l 1
EndSplineSet
EndChar

StartChar: e
Encoding: 101 101 108
Width: 996
VWidth: 0
Flags: W
LayerCount: 2
Fore
SplineSet
490 -18 m 0
 858 -18 940 182 940 494 c 2
 940 579 l 1
 584 579 l 1
 585 575 586 501 586 483 c 0
 586 393 583 260 502 260 c 0
 424 260 415 345 415 427 c 0
 415 450 416 473 416 494 c 2
 416 704 l 1
 936 704 l 1
 939 761 940 890 940 983 c 0
 940 1045 940 1092 940 1092 c 2
 940 1395 777 1518 508 1518 c 0
 228 1518 58 1372 58 1092 c 2
 58 489 l 2
 58 256 105 -18 490 -18 c 0
504 1249 m 0
 574 1249 584 1151 584 1087 c 0
 584 1005 584 931 584 931 c 1
 416 931 l 1
 416 972 414 1016 414 1057 c 0
 414 1160 425 1249 504 1249 c 0
EndSplineSet
EndChar

StartChar: eight
Encoding: 56 56 113
Width: 1069
VWidth: 0
Flags: W
LayerCount: 2
Fore
SplineSet
536 791 m 0
 434 791 441 618 441 544 c 0
 441 530 440 510 440 488 c 0
 440 415 450 319 536 319 c 0
 622 319 632 415 632 488 c 0
 632 526 631 545 631 575 c 0
 631 657 626 791 536 791 c 0
536 1730 m 0
 819 1730 996 1618 996 1283 c 0
 996 1171 993 1014 847 955 c 1
 1009 879 997 726 997 510 c 0
 997 88 790 -18 536 -18 c 0
 282 -18 75 88 75 510 c 0
 75 729 63 877 225 957 c 1
 73 1015 76 1185 76 1296 c 0
 76 1621 260 1730 536 1730 c 0
536 1101 m 0
 619 1101 629 1199 629 1264 c 0
 629 1328 611 1416 536 1416 c 0
 461 1416 443 1328 443 1264 c 0
 443 1199 453 1101 536 1101 c 0
EndSplineSet
EndChar

StartChar: ellipsis
Encoding: 273 8230 114
Width: 1473
VWidth: 0
Flags: W
LayerCount: 2
Fore
SplineSet
67 1 m 1
 425 1 l 1
 425 299 l 1
 67 299 l 1
 67 1 l 1
558 1 m 1
 916 1 l 1
 916 299 l 1
 558 299 l 1
 558 1 l 1
1049 1 m 1
 1407 1 l 1
 1407 299 l 1
 1049 299 l 1
 1049 1 l 1
EndSplineSet
EndChar

StartChar: emdash
Encoding: 274 8212 115
Width: 1166
VWidth: 0
Flags: W
LayerCount: 2
Fore
SplineSet
67 741 m 1
 67 509 l 1
 1099 509 l 1
 1099 741 l 1
 67 741 l 1
EndSplineSet
EndChar

StartChar: equal
Encoding: 61 61 117
Width: 648
VWidth: 0
Flags: W
LayerCount: 2
Fore
SplineSet
67 509 m 1
 581 509 l 1
 581 741 l 1
 67 741 l 1
 67 509 l 1
67 892 m 1
 581 892 l 1
 581 1116 l 1
 67 1116 l 1
 67 892 l 1
EndSplineSet
EndChar

StartChar: exclam
Encoding: 33 33 118
Width: 487
VWidth: 0
Flags: W
LayerCount: 2
Fore
SplineSet
65 1593 m 1
 423 1593 l 1
 353 439 l 1
 135 439 l 1
 65 1593 l 1
65 1 m 1
 423 1 l 1
 423 299 l 1
 65 299 l 1
 65 1 l 1
EndSplineSet
EndChar

StartChar: f
Encoding: 102 102 120
Width: 635
VWidth: 0
Flags: W
LayerCount: 2
Fore
SplineSet
137 0 m 1
 492 0 l 1
 492 1157 l 1
 563 1157 l 1
 563 1434 l 1
 485 1434 l 1
 485 1441 485 1447 485 1453 c 0
 485 1502 490 1533 530 1533 c 0
 539 1533 550 1531 563 1528 c 1
 563 1749 l 1
 563 1749 494 1778 379 1778 c 0
 178 1778 137 1653 137 1536 c 2
 137 1434 l 1
 76 1434 l 1
 76 1434 72 1208 72 1161 c 1
 137 1161 l 1
 137 0 l 1
EndSplineSet
EndChar

StartChar: five
Encoding: 53 53 122
Width: 1069
VWidth: 0
Flags: W
LayerCount: 2
Fore
SplineSet
530 -24 m 0
 1001 -24 1001 324 1001 649 c 0
 1001 991 926 1227 618 1227 c 0
 558 1227 484 1214 444 1178 c 1
 443 1370 l 1
 948 1370 l 1
 948 1370 948 1582 948 1690 c 1
 668 1690 389 1690 109 1690 c 1
 109 1394 109 1097 109 801 c 1
 217 801 324 801 432 801 c 1
 432 853 442 942 532 942 c 0
 621 942 623 825 623 764 c 2
 623 428 l 2
 623 357 609 295 530 295 c 0
 494 295 436 300 436 481 c 2
 436 627 l 1
 70 627 l 1
 70 627 70 469 70 373 c 0
 70 99 264 -24 530 -24 c 0
EndSplineSet
EndChar

StartChar: florin
Encoding: 278 402 124
Width: 627
VWidth: 0
Flags: W
LayerCount: 2
Fore
SplineSet
493 986 m 1
 584 986 l 1
 584 1263 l 1
 486 1263 l 1
 486 1269 486 1275 486 1281 c 0
 486 1330 492 1362 541 1362 c 0
 553 1362 567 1360 584 1357 c 1
 584 1578 l 1
 584 1578 507 1607 380 1607 c 0
 179 1607 138 1482 138 1365 c 2
 138 1263 l 1
 53 1263 l 1
 53 986 l 1
 138 986 l 1
 145 297 l 2
 145 291 145 285 145 279 c 0
 145 230 139 198 90 198 c 0
 78 198 64 200 47 203 c 1
 47 -18 l 1
 47 -18 124 -47 251 -47 c 0
 452 -47 493 78 493 195 c 2
 493 986 l 1
EndSplineSet
EndChar

StartChar: four
Encoding: 52 52 125
Width: 1122
VWidth: 0
Flags: W
LayerCount: 2
Fore
SplineSet
1051 575 m 1
 981 575 l 1
 981 1683 l 1
 403 1683 l 1
 70 537 l 1
 70 270 l 1
 612 270 l 1
 612 -1 l 1
 981 -1 l 1
 981 270 l 1
 1051 270 l 1
 1051 575 l 1
414 575 m 1
 612 1299 l 1
 612 575 l 1
 414 575 l 1
EndSplineSet
EndChar

StartChar: uni2074
Encoding: 279 8308 126
Width: 630
VWidth: 0
Flags: W
LayerCount: 2
Fore
SplineSet
576 973 m 1
 537 973 l 1
 537 1592 l 1
 214 1592 l 1
 27 951 l 1
 27 802 l 1
 330 802 l 1
 330 650 l 1
 537 650 l 1
 537 802 l 1
 576 802 l 1
 576 973 l 1
220 973 m 1
 330 1378 l 1
 330 973 l 1
 220 973 l 1
EndSplineSet
EndChar

StartChar: fraction
Encoding: 280 8260 127
Width: 812
VWidth: 0
Flags: W
LayerCount: 2
Fore
SplineSet
302 0 m 1
 793 1767 l 1
 509 1767 l 1
 19 0 l 1
 302 0 l 1
EndSplineSet
EndChar

StartChar: g
Encoding: 103 103 128
Width: 1036
VWidth: 0
Flags: W
LayerCount: 2
Fore
SplineSet
485 -220 m 0
 798 -220 973 -116 973 254 c 2
 973 1500 l 1
 973 1500 729 1500 608 1500 c 1
 608 1476 608 1356 608 1331 c 1
 574 1484 465 1518 379 1518 c 0
 200 1518 80 1425 80 1106 c 2
 80 543 l 2
 80 340 160 160 379 160 c 0
 493 160 577 206 608 314 c 1
 608 305 608 231 608 231 c 2
 608 107 549 33 438 33 c 0
 336 33 258 62 176 111 c 1
 55 -96 l 1
 184 -203 309 -220 485 -220 c 0
520 1243 m 0
 581 1243 608 1163 608 1116 c 2
 608 582 l 2
 608 500 592 430 524 430 c 0
 444 430 442 530 442 582 c 2
 442 1116 l 2
 442 1163 442 1243 520 1243 c 0
EndSplineSet
EndChar

StartChar: germandbls
Encoding: 223 223 129
Width: 1026
VWidth: 0
Flags: W
LayerCount: 2
Fore
SplineSet
489 1593 m 0
 249 1593 64 1503 64 1229 c 2
 64 0 l 1
 414 0 l 1
 414 1270 l 2
 414 1290 418 1346 489 1346 c 0
 560 1346 564 1290 564 1270 c 2
 564 1112 l 2
 564 1065 562 993 480 993 c 1
 480 745 l 1
 594 745 627 700 627 598 c 2
 627 399 l 2
 627 312 567 281 484 281 c 1
 484 0 l 1
 588 0 l 2
 895 0 975 181 975 476 c 0
 975 615 966 837 765 887 c 1
 923 935 915 1118 915 1229 c 0
 915 1503 729 1593 489 1593 c 0
EndSplineSet
EndChar

StartChar: grave
Encoding: 96 96 130
Width: 650
VWidth: 0
Flags: W
LayerCount: 2
Fore
SplineSet
543 1592 m 1
 27 1682 l 1
 87 1894 l 1
 583 1712 l 1
 543 1592 l 1
EndSplineSet
EndChar

StartChar: greater
Encoding: 62 62 131
Width: 652
VWidth: 0
Flags: W
LayerCount: 2
Fore
SplineSet
637 545 m 1
 637 959 l 1
 67 1300 l 1
 67 941 l 1
 409 749 l 1
 67 558 l 1
 67 200 l 1
 637 545 l 1
EndSplineSet
EndChar

StartChar: greaterequal
Encoding: 281 8805 132
Width: 487
VWidth: 0
Flags: W
LayerCount: 2
Fore
SplineSet
529 637 m 1
 529 1051 l 1
 -41 1392 l 1
 -41 1033 l 1
 301 841 l 1
 -41 650 l 1
 -41 292 l 1
 529 637 l 1
-14 509 m 1
 502 509 l 1
 502 741 l 1
 -14 741 l 1
 -14 509 l 1
EndSplineSet
EndChar

StartChar: guillemotleft
Encoding: 171 171 133
Width: 1194
VWidth: 0
Flags: W
LayerCount: 2
Fore
SplineSet
618 545 m 1
 618 959 l 1
 1128 1230 l 1
 1128 871 l 1
 816 749 l 1
 1128 618 l 1
 1128 260 l 1
 618 545 l 1
40 545 m 1
 40 959 l 1
 550 1230 l 1
 550 871 l 1
 238 749 l 1
 550 618 l 1
 550 260 l 1
 40 545 l 1
EndSplineSet
EndChar

StartChar: guillemotright
Encoding: 187 187 134
Width: 1194
VWidth: 0
Flags: W
LayerCount: 2
Fore
SplineSet
577 545 m 1
 577 959 l 1
 67 1230 l 1
 67 871 l 1
 379 749 l 1
 67 618 l 1
 67 260 l 1
 577 545 l 1
1154 545 m 1
 1154 959 l 1
 644 1230 l 1
 644 871 l 1
 956 749 l 1
 644 618 l 1
 644 260 l 1
 1154 545 l 1
EndSplineSet
EndChar

StartChar: guilsinglleft
Encoding: 282 8249 135
Width: 594
VWidth: 0
Flags: W
LayerCount: 2
Fore
SplineSet
18 545 m 1
 18 959 l 1
 528 1230 l 1
 528 871 l 1
 216 749 l 1
 528 618 l 1
 528 260 l 1
 18 545 l 1
EndSplineSet
EndChar

StartChar: guilsinglright
Encoding: 283 8250 136
Width: 595
VWidth: 0
Flags: W
LayerCount: 2
Fore
SplineSet
577 545 m 1
 577 959 l 1
 67 1230 l 1
 67 871 l 1
 379 749 l 1
 67 618 l 1
 67 260 l 1
 577 545 l 1
EndSplineSet
EndChar

StartChar: h
Encoding: 104 104 137
Width: 1030
VWidth: 0
Flags: W
LayerCount: 2
Fore
SplineSet
70 0 m 1
 438 0 l 1
 438 1135 l 2
 438 1221 494 1243 518 1243 c 0
 598 1243 607 1154 607 1085 c 0
 607 1066 606 1047 606 1034 c 2
 606 0 l 1
 965 0 l 1
 965 0 965 758 965 1155 c 0
 965 1405 838 1519 657 1519 c 0
 549 1519 475 1459 438 1351 c 1
 438 1767 l 1
 70 1767 l 1
 70 0 l 1
EndSplineSet
EndChar

StartChar: hungarumlaut
Encoding: 284 733 138
Width: 1300
VWidth: 0
Flags: W
LayerCount: 2
Fore
SplineSet
484 1236 m 1
 785 1665 l 1
 592 1773 l 1
 371 1294 l 1
 484 1236 l 1
786 1236 m 1
 1087 1665 l 1
 894 1773 l 1
 673 1294 l 1
 786 1236 l 1
EndSplineSet
EndChar

StartChar: hyphen
Encoding: 45 45 139
Width: 650
VWidth: 0
Flags: W
LayerCount: 2
Fore
SplineSet
67 509 m 1
 583 509 l 1
 583 741 l 1
 67 741 l 1
 67 509 l 1
EndSplineSet
EndChar

StartChar: i
Encoding: 105 105 140
Width: 487
VWidth: 0
Flags: W
LayerCount: 2
Fore
SplineSet
65 0 m 1
 423 0 l 1
 423 1500 l 1
 65 1500 l 1
 65 0 l 1
65 1567 m 1
 423 1567 l 1
 423 1769 l 1
 65 1769 l 1
 65 1567 l 1
EndSplineSet
EndChar

StartChar: j
Encoding: 106 106 147
Width: 565
VWidth: 0
Flags: W
LayerCount: 2
Fore
SplineSet
129 1500 m 1
 129 156 l 2
 129 113 122 85 86 85 c 0
 77 85 66 86 53 90 c 1
 53 -150 l 1
 53 -150 90 -176 205 -176 c 0
 406 -176 487 -53 487 166 c 2
 487 1500 l 1
 129 1500 l 1
129 1567 m 1
 487 1567 l 1
 487 1769 l 1
 129 1769 l 1
 129 1567 l 1
EndSplineSet
EndChar

StartChar: k
Encoding: 107 107 148
Width: 1075
VWidth: 0
Flags: W
LayerCount: 2
Fore
SplineSet
76 0 m 1
 430 0 l 1
 430 707 l 1
 653 0 l 1
 1034 0 l 1
 748 848 l 1
 973 1500 l 1
 602 1500 l 1
 430 983 l 1
 430 1769 l 1
 76 1769 l 1
 76 0 l 1
EndSplineSet
EndChar

StartChar: l
Encoding: 108 108 149
Width: 510
VWidth: 0
Flags: W
LayerCount: 2
Fore
SplineSet
436 0 m 1
 436 1767 l 1
 72 1767 l 1
 72 0 l 1
 436 0 l 1
EndSplineSet
EndChar

StartChar: less
Encoding: 60 60 150
Width: 651
VWidth: 0
Flags: W
LayerCount: 2
Fore
SplineSet
15 545 m 1
 15 959 l 1
 585 1300 l 1
 585 941 l 1
 243 749 l 1
 585 558 l 1
 585 200 l 1
 15 545 l 1
EndSplineSet
EndChar

StartChar: lessequal
Encoding: 287 8804 151
Width: 487
VWidth: 0
Flags: W
LayerCount: 2
Fore
SplineSet
-41 637 m 1
 -41 1051 l 1
 529 1392 l 1
 529 1033 l 1
 187 841 l 1
 529 650 l 1
 529 292 l 1
 -41 637 l 1
-14 509 m 1
 502 509 l 1
 502 741 l 1
 -14 741 l 1
 -14 509 l 1
EndSplineSet
EndChar

StartChar: logicalnot
Encoding: 172 172 152
Width: 858
VWidth: 0
Flags: W
LayerCount: 2
Fore
SplineSet
63 979 m 1
 63 801 l 1
 481 801 l 1
 481 439 l 1
 792 439 l 1
 792 979 l 1
 63 979 l 1
EndSplineSet
EndChar

StartChar: lslash
Encoding: 289 322 154
Width: 510
VWidth: 0
Flags: W
LayerCount: 2
Fore
SplineSet
-3 509 m 1
 513 741 l 1
 513 973 l 1
 -3 741 l 1
 -3 509 l 1
EndSplineSet
Refer: 149 108 N 1 0 0 1 0 0 2
EndChar

StartChar: m
Encoding: 109 109 155
Width: 1546
VWidth: 0
Flags: W
LayerCount: 2
Fore
SplineSet
67 1501 m 1
 67 0 l 1
 417 0 l 1
 417 0 417 711 417 1059 c 0
 417 1130 436 1243 517 1243 c 0
 596 1243 587 1106 587 1059 c 2
 587 0 l 1
 945 0 l 1
 945 1077 l 2
 945 1137 962 1247 1042 1247 c 0
 1113 1247 1115 1149 1115 1102 c 2
 1115 0 l 1
 1476 0 l 1
 1480 1096 l 2
 1481 1292 1446 1519 1167 1519 c 0
 1051 1519 976 1481 912 1365 c 1
 867 1483 752 1519 669 1519 c 0
 579 1519 461 1500 417 1326 c 1
 417 1501 l 1
 67 1501 l 1
EndSplineSet
EndChar

StartChar: uni00B5
Encoding: 181 181 158
Width: 1034
VWidth: 0
Flags: W
LayerCount: 2
Fore
SplineSet
598 1500 m 1
 596 455 l 2
 596 385 602 264 512 264 c 0
 436 264 432 317 432 455 c 2
 432 1500 l 1
 72 1500 l 1
 72 -186 l 1
 432 -186 l 1
 432 -11 l 1
 496 2 551 45 596 160 c 1
 596 0 l 1
 954 0 l 1
 954 1500 l 1
 598 1500 l 1
EndSplineSet
EndChar

StartChar: multiply
Encoding: 215 215 159
Width: 700
VWidth: 0
Flags: W
LayerCount: 2
Fore
SplineSet
203 314 m 1
 350 461 l 1
 497 314 l 1
 661 478 l 1
 514 625 l 1
 661 772 l 1
 497 936 l 1
 350 789 l 1
 203 936 l 1
 39 772 l 1
 186 625 l 1
 39 478 l 1
 203 314 l 1
EndSplineSet
EndChar

StartChar: n
Encoding: 110 110 160
Width: 1012
VWidth: 0
Flags: W
LayerCount: 2
Fore
SplineSet
67 0 m 1
 425 0 l 1
 425 1055 l 2
 425 1112 425 1239 515 1239 c 0
 577 1239 595 1171 595 1120 c 2
 595 0 l 1
 948 0 l 1
 948 1157 l 2
 948 1411 831 1518 651 1518 c 0
 545 1518 456 1465 425 1329 c 1
 425 1501 l 1
 67 1501 l 1
 67 0 l 1
EndSplineSet
EndChar

StartChar: nine
Encoding: 57 57 161
Width: 1071
VWidth: 0
Flags: W
LayerCount: 2
Fore
SplineSet
528 -18 m 0
 1001 -18 1001 373 1001 727 c 1
 1004 1152 l 1
 1004 1507 899 1725 541 1725 c 0
 161 1725 69 1471 69 1164 c 0
 69 794 143 598 423 598 c 0
 492 598 569 623 618 676 c 1
 618 431 l 2
 618 346 561 320 526 320 c 0
 496 320 436 346 437 417 c 2
 438 496 l 1
 66 496 l 1
 66 346 l 2
 66 106 279 -18 528 -18 c 0
449 1155 m 0
 449 1369 465 1411 541 1411 c 0
 616 1411 629 1331 629 1240 c 2
 629 1079 l 2
 629 994 615 908 539 908 c 0
 449 908 449 988 449 1155 c 0
EndSplineSet
EndChar

StartChar: numbersign
Encoding: 35 35 164
Width: 1130
VWidth: 0
Flags: W
LayerCount: 2
Fore
SplineSet
105 886 m 1
 215 886 l 1
 187 741 l 1
 47 741 l 1
 47 509 l 1
 142 509 l 1
 43 0 l 1
 326 0 l 1
 425 509 l 1
 592 509 l 1
 493 0 l 1
 776 0 l 1
 875 509 l 1
 1029 509 l 1
 1029 741 l 1
 921 741 l 1
 949 886 l 1
 1087 886 l 1
 1087 1118 l 1
 994 1118 l 1
 1087 1593 l 1
 803 1593 l 1
 710 1118 l 1
 544 1118 l 1
 637 1593 l 1
 353 1593 l 1
 260 1118 l 1
 105 1118 l 1
 105 886 l 1
499 886 m 1
 665 886 l 1
 637 741 l 1
 471 741 l 1
 499 886 l 1
EndSplineSet
EndChar

StartChar: o
Encoding: 111 111 165
Width: 1036
VWidth: 0
Flags: W
LayerCount: 2
Fore
SplineSet
520 -18 m 0
 231 -18 72 131 72 449 c 2
 72 1051 l 2
 72 1337 242 1518 520 1518 c 0
 799 1518 969 1337 969 1051 c 2
 969 449 l 2
 969 131 809 -18 520 -18 c 0
520 1239 m 0
 465 1239 436 1194 436 1108 c 2
 436 375 l 2
 436 289 475 260 520 260 c 0
 565 260 604 289 604 375 c 2
 604 1108 l 2
 604 1194 575 1239 520 1239 c 0
EndSplineSet
EndChar

StartChar: oe
Encoding: 292 339 169
Width: 1535
VWidth: 0
Flags: W
LayerCount: 2
Fore
SplineSet
509 -18 m 0
 618 -18 708 10 779 69 c 1
 838 15 915 -18 1025 -18 c 0
 1393 -18 1475 182 1475 494 c 2
 1475 579 l 1
 1119 579 l 1
 1120 575 1121 501 1121 483 c 0
 1121 393 1118 260 1037 260 c 0
 959 260 950 345 950 427 c 0
 950 450 951 473 951 494 c 2
 951 704 l 1
 1471 704 l 1
 1474 761 1475 890 1475 983 c 2
 1475 1092 l 2
 1475 1395 1312 1518 1043 1518 c 0
 934 1518 842 1486 774 1422 c 1
 703 1483 614 1518 509 1518 c 0
 231 1518 61 1337 61 1051 c 2
 61 449 l 2
 61 131 220 -18 509 -18 c 0
509 1239 m 0
 564 1239 593 1194 593 1108 c 2
 593 375 l 2
 593 289 554 260 509 260 c 0
 464 260 425 289 425 375 c 2
 425 1108 l 2
 425 1194 454 1239 509 1239 c 0
1039 1249 m 0
 1109 1249 1119 1151 1119 1087 c 2
 1119 931 l 1
 951 931 l 1
 951 972 949 1016 949 1057 c 0
 949 1160 960 1249 1039 1249 c 0
EndSplineSet
EndChar

StartChar: ogonek
Encoding: 293 731 170
Width: 1015
VWidth: 0
Flags: W
LayerCount: 2
Fore
SplineSet
852 -591 m 1
 787 -618 719 -631 654 -631 c 0
 467 -631 306 -522 306 -330 c 0
 306 -213 393 -100 570 0 c 1
 781 0 l 1
 675 -128 621 -210 621 -279 c 0
 621 -360 670 -391 736 -391 c 0
 772 -391 812 -382 852 -368 c 1
 852 -591 l 1
EndSplineSet
EndChar

StartChar: one
Encoding: 49 49 172
Width: 707
VWidth: 0
Flags: W
LayerCount: 2
Fore
SplineSet
346 1692 m 1
 629 1692 l 1
 629 0 l 1
 256 0 l 1
 256 1260 l 1
 256 1260 150 1207 38 1206 c 1
 38 1207 40 1321 40 1402 c 0
 40 1442 39 1474 38 1479 c 1
 106 1479 346 1559 346 1692 c 1
EndSplineSet
EndChar

StartChar: uni00B9
Encoding: 185 185 175
Width: 415
VWidth: 0
Flags: W
LayerCount: 2
Fore
SplineSet
190 1607 m 1
 349 1607 l 1
 349 656 l 1
 139 656 l 1
 139 1364 l 1
 139 1364 80 1334 16 1334 c 1
 16 1334 18 1398 18 1444 c 0
 18 1466 17 1484 16 1487 c 1
 55 1487 190 1532 190 1607 c 1
EndSplineSet
EndChar

StartChar: p
Encoding: 112 112 180
Width: 1038
VWidth: 0
Flags: W
LayerCount: 2
Fore
SplineSet
440 -186 m 1
 440 59 l 1
 492 2 571 -18 645 -18 c 0
 969 -18 967 276 967 526 c 2
 967 1075 l 2
 967 1319 903 1518 655 1518 c 0
 571 1518 494 1485 440 1419 c 1
 440 1500 l 1
 76 1500 l 1
 76 -186 l 1
 440 -186 l 1
440 1079 m 2
 440 1139 446 1235 524 1235 c 0
 606 1235 604 1133 604 1075 c 2
 604 438 l 2
 604 311 582 262 526 262 c 0
 461 262 440 319 440 422 c 2
 440 1079 l 2
EndSplineSet
EndChar

StartChar: paragraph
Encoding: 182 182 181
Width: 981
VWidth: 0
Flags: W
LayerCount: 2
Fore
SplineSet
357 0 m 1
 603 0 l 1
 603 1287 l 1
 697 1287 l 1
 697 0 l 1
 936 0 l 1
 936 1593 l 1
 561 1593 l 2
 230 1593 10 1501 10 1210 c 0
 10 984 82 828 357 797 c 1
 357 0 l 1
EndSplineSet
EndChar

StartChar: parenleft
Encoding: 40 40 182
Width: 622
VWidth: 0
Flags: W
LayerCount: 2
Fore
SplineSet
556 268 m 1
 484 287 417 343 417 450 c 2
 417 1233 l 2
 417 1323 413 1439 556 1462 c 1
 556 1729 l 1
 229 1720 45 1534 45 1151 c 2
 45 562 l 2
 45 153 331 -7 556 -17 c 1
 556 268 l 1
EndSplineSet
EndChar

StartChar: parenright
Encoding: 41 41 183
Width: 623
VWidth: 0
Flags: W
LayerCount: 2
Fore
SplineSet
67 268 m 1
 139 287 206 343 206 450 c 2
 206 1233 l 2
 206 1323 210 1439 67 1462 c 1
 67 1729 l 1
 394 1720 578 1534 578 1151 c 2
 578 562 l 2
 578 153 292 -7 67 -17 c 1
 67 268 l 1
EndSplineSet
EndChar

StartChar: percent
Encoding: 37 37 185
Width: 2164
VWidth: 0
Flags: W
LayerCount: 2
Fore
SplineSet
1729 -18 m 0
 1537 -18 1338 99 1338 402 c 2
 1338 765 l 2
 1338 1047 1477 1183 1729 1183 c 0
 1981 1183 2121 1047 2121 765 c 2
 2121 402 l 2
 2121 99 1922 -18 1729 -18 c 0
1729 244 m 0
 1768 244 1822 274 1822 343 c 2
 1822 829 l 2
 1822 884 1822 956 1729 956 c 0
 1637 956 1636 884 1636 829 c 2
 1636 343 l 2
 1636 274 1690 244 1729 244 c 0
982 0 m 1
 1523 1767 l 1
 1199 1767 l 1
 659 0 l 1
 982 0 l 1
432 528 m 0
 240 528 41 645 41 948 c 2
 41 1311 l 2
 41 1593 180 1729 432 1729 c 0
 684 1729 824 1593 824 1311 c 2
 824 948 l 2
 824 645 625 528 432 528 c 0
432 790 m 0
 471 790 525 820 525 889 c 2
 525 1375 l 2
 525 1430 525 1502 432 1502 c 0
 340 1502 339 1430 339 1375 c 2
 339 889 l 2
 339 820 393 790 432 790 c 0
EndSplineSet
EndChar

StartChar: period
Encoding: 46 46 186
Width: 491
VWidth: 0
Flags: W
LayerCount: 2
Fore
SplineSet
67 1 m 1
 425 1 l 1
 425 299 l 1
 67 299 l 1
 67 1 l 1
EndSplineSet
EndChar

StartChar: perthousand
Encoding: 295 8240 188
Width: 3031
VWidth: 0
Flags: W
LayerCount: 2
Fore
SplineSet
2604 -18 m 0
 2412 -18 2213 99 2213 402 c 2
 2213 765 l 2
 2213 1047 2352 1183 2604 1183 c 0
 2856 1183 2996 1047 2996 765 c 2
 2996 402 l 2
 2996 99 2797 -18 2604 -18 c 0
2604 244 m 0
 2643 244 2697 274 2697 343 c 2
 2697 829 l 2
 2697 884 2697 956 2604 956 c 0
 2512 956 2511 884 2511 829 c 2
 2511 343 l 2
 2511 274 2565 244 2604 244 c 0
990 0 m 1
 1531 1767 l 1
 1207 1767 l 1
 667 0 l 1
 990 0 l 1
440 528 m 0
 248 528 49 645 49 948 c 2
 49 1311 l 2
 49 1593 188 1729 440 1729 c 0
 692 1729 832 1593 832 1311 c 2
 832 948 l 2
 832 645 633 528 440 528 c 0
440 790 m 0
 479 790 533 820 533 889 c 2
 533 1375 l 2
 533 1430 533 1502 440 1502 c 0
 348 1502 347 1430 347 1375 c 2
 347 889 l 2
 347 820 401 790 440 790 c 0
1737 -18 m 0
 1545 -18 1346 99 1346 402 c 2
 1346 765 l 2
 1346 1047 1485 1183 1737 1183 c 0
 1989 1183 2129 1047 2129 765 c 2
 2129 402 l 2
 2129 99 1930 -18 1737 -18 c 0
1737 244 m 0
 1776 244 1830 274 1830 343 c 2
 1830 829 l 2
 1830 884 1830 956 1737 956 c 0
 1645 956 1644 884 1644 829 c 2
 1644 343 l 2
 1644 274 1698 244 1737 244 c 0
EndSplineSet
EndChar

StartChar: pi
Encoding: 296 960 189
Width: 514
VWidth: 0
Flags: W
LayerCount: 2
Fore
SplineSet
78 0 m 1
 436 0 l 1
 436 1500 l 1
 78 1500 l 1
 78 0 l 1
78 0 m 1
 436 0 l 1
 436 1500 l 1
 78 1500 l 1
 78 0 l 1
EndSplineSet
EndChar

StartChar: plus
Encoding: 43 43 190
Width: 700
VWidth: 0
Flags: W
LayerCount: 2
Fore
SplineSet
26 509 m 1
 234 509 l 1
 234 301 l 1
 466 301 l 1
 466 509 l 1
 674 509 l 1
 674 741 l 1
 466 741 l 1
 466 949 l 1
 234 949 l 1
 234 741 l 1
 26 741 l 1
 26 509 l 1
EndSplineSet
EndChar

StartChar: q
Encoding: 113 113 193
Width: 1038
VWidth: 0
Flags: W
LayerCount: 2
Fore
SplineSet
604 -186 m 1
 604 90 l 1
 551 18 473 -18 399 -18 c 0
 76 -18 78 238 78 487 c 2
 78 1075 l 2
 78 1319 141 1518 389 1518 c 0
 473 1518 551 1485 604 1419 c 1
 604 1500 l 1
 969 1500 l 1
 969 -186 l 1
 604 -186 l 1
604 1079 m 2
 604 1139 598 1235 520 1235 c 0
 438 1235 440 1133 440 1075 c 2
 440 438 l 2
 440 311 463 262 518 262 c 0
 584 262 604 319 604 422 c 2
 604 1079 l 2
EndSplineSet
EndChar

StartChar: question
Encoding: 63 63 194
Width: 1007
VWidth: 0
Flags: W
LayerCount: 2
Fore
SplineSet
512 1690 m 0
 924 1690 982 1424 982 1140 c 0
 982 827 839 579 464 579 c 1
 464 409 l 1
 131 409 l 1
 131 825 l 1
 568 825 605 915 605 1208 c 0
 605 1294 591 1371 512 1371 c 0
 476 1371 418 1366 418 1185 c 2
 418 1039 l 1
 52 1039 l 1
 52 1039 52 1197 52 1293 c 0
 52 1567 246 1690 512 1690 c 0
120 1 m 1
 478 1 l 1
 478 299 l 1
 120 299 l 1
 120 1 l 1
EndSplineSet
EndChar

StartChar: quotedbl
Encoding: 34 34 196
Width: 901
VWidth: 0
Flags: W
LayerCount: 2
Fore
SplineSet
329 957 m 1
 405 1593 l 1
 53 1593 l 1
 153 957 l 1
 329 957 l 1
769 957 m 1
 845 1593 l 1
 493 1593 l 1
 593 957 l 1
 769 957 l 1
EndSplineSet
EndChar

StartChar: quotedblbase
Encoding: 298 8222 197
Width: 967
VWidth: 0
Flags: W
LayerCount: 2
Fore
SplineSet
533 0 m 1
 660 0 l 1
 594 -236 l 1
 805 -236 l 1
 907 9 l 1
 907 298 l 1
 533 298 l 1
 533 0 l 1
60 0 m 1
 187 0 l 1
 121 -236 l 1
 332 -236 l 1
 434 9 l 1
 434 298 l 1
 60 298 l 1
 60 0 l 1
EndSplineSet
EndChar

StartChar: quotedblleft
Encoding: 299 8220 198
Width: 964
VWidth: 0
Flags: W
LayerCount: 2
Fore
SplineSet
904 1356 m 1
 777 1356 l 1
 843 1592 l 1
 632 1592 l 1
 530 1347 l 1
 530 1058 l 1
 904 1058 l 1
 904 1356 l 1
435 1356 m 1
 308 1356 l 1
 374 1592 l 1
 163 1592 l 1
 61 1347 l 1
 61 1058 l 1
 435 1058 l 1
 435 1356 l 1
EndSplineSet
EndChar

StartChar: quotedblright
Encoding: 300 8221 199
Width: 967
VWidth: 0
Flags: W
LayerCount: 2
Fore
SplineSet
533 1294 m 1
 660 1294 l 1
 594 1058 l 1
 805 1058 l 1
 907 1303 l 1
 907 1592 l 1
 533 1592 l 1
 533 1294 l 1
60 1294 m 1
 187 1294 l 1
 121 1058 l 1
 332 1058 l 1
 434 1303 l 1
 434 1592 l 1
 60 1592 l 1
 60 1294 l 1
EndSplineSet
EndChar

StartChar: quoteleft
Encoding: 301 8216 200
Width: 479
VWidth: 0
Flags: W
LayerCount: 2
Fore
SplineSet
427 1356 m 1
 300 1356 l 1
 366 1592 l 1
 155 1592 l 1
 53 1347 l 1
 53 1058 l 1
 427 1058 l 1
 427 1356 l 1
EndSplineSet
EndChar

StartChar: quoteright
Encoding: 302 8217 201
Width: 479
VWidth: 0
Flags: W
LayerCount: 2
Fore
SplineSet
52 1294 m 1
 179 1294 l 1
 113 1058 l 1
 324 1058 l 1
 426 1303 l 1
 426 1592 l 1
 52 1592 l 1
 52 1294 l 1
EndSplineSet
EndChar

StartChar: quotesinglbase
Encoding: 303 8218 202
Width: 479
VWidth: 0
Flags: W
LayerCount: 2
Fore
SplineSet
52 0 m 1
 179 0 l 1
 113 -236 l 1
 324 -236 l 1
 426 9 l 1
 426 298 l 1
 52 298 l 1
 52 0 l 1
EndSplineSet
EndChar

StartChar: quotesingle
Encoding: 39 39 203
Width: 434
VWidth: 0
Flags: W
LayerCount: 2
Fore
SplineSet
314 957 m 1
 390 1593 l 1
 38 1593 l 1
 138 957 l 1
 314 957 l 1
EndSplineSet
EndChar

StartChar: r
Encoding: 114 114 204
Width: 920
VWidth: 0
Flags: W
LayerCount: 2
Fore
SplineSet
67 0 m 1
 425 0 l 1
 425 1147 l 2
 425 1204 460 1233 491 1233 c 0
 544 1233 548 1178 548 1135 c 2
 548 776 l 1
 898 776 l 1
 898 1278 l 2
 898 1446 765 1518 646 1518 c 0
 544 1518 467 1479 425 1333 c 1
 425 1500 l 1
 67 1500 l 1
 67 0 l 1
EndSplineSet
EndChar

StartChar: registered
Encoding: 174 174 206
Width: 1406
VWidth: 0
Flags: W
LayerCount: 2
Fore
SplineSet
671 818 m 1
 717 818 743 817 743 762 c 2
 743 430 l 1
 927 430 l 1
 927 751 l 2
 927 796 921 859 848 873 c 1
 939 901 941 982 941 1043 c 0
 941 1181 921 1282 770 1282 c 2
 481 1282 l 1
 481 430 l 1
 671 430 l 1
 671 818 l 1
672 1124 m 1
 671 1124 l 2
 740 1124 757 1115 757 1043 c 0
 757 1015 755 965 720 965 c 2
 672 965 l 1
 672 1124 l 1
205 862 m 0
 205 1152 429 1390 703 1390 c 0
 977 1390 1201 1152 1201 862 c 0
 1201 572 977 334 703 334 c 0
 429 334 205 572 205 862 c 0
46 862 m 0
 46 499 340 205 703 205 c 0
 1066 205 1360 499 1360 862 c 0
 1360 1225 1066 1519 703 1519 c 0
 340 1519 46 1225 46 862 c 0
EndSplineSet
EndChar

StartChar: ring
Encoding: 305 730 207
Width: 804
VWidth: 0
Flags: W
LayerCount: 2
Fore
SplineSet
261 450 m 0
 261 526 305 607 403 607 c 0
 501 607 545 526 545 450 c 0
 545 374 501 293 403 293 c 0
 305 293 261 374 261 450 c 0
49 450 m 0
 49 243 183 112 402 112 c 0
 622 112 756 243 756 450 c 0
 756 657 622 788 402 788 c 0
 183 788 49 657 49 450 c 0
EndSplineSet
EndChar

StartChar: s
Encoding: 115 115 208
Width: 996
VWidth: 0
Flags: W
LayerCount: 2
Fore
SplineSet
569 1053 m 1
 937 1053 l 1
 937 1081 l 2
 937 1386 774 1518 501 1518 c 0
 280 1518 57 1397 57 1157 c 0
 57 1012 69 904 241 772 c 2
 432 625 l 2
 575 515 573 458 573 385 c 0
 573 285 536 268 501 268 c 0
 467 268 414 276 413 377 c 2
 411 553 l 1
 53 553 l 1
 51 434 l 1
 51 139 193 -18 495 -18 c 0
 763 -18 946 123 946 418 c 0
 946 524 931 700 700 870 c 2
 479 1032 l 2
 419 1076 415 1136 415 1159 c 0
 415 1208 440 1239 491 1239 c 0
 554 1239 567 1157 567 1110 c 1
 569 1053 l 1
EndSplineSet
EndChar

StartChar: section
Encoding: 167 167 210
Width: 1034
VWidth: 0
Flags: W
LayerCount: 2
Fore
SplineSet
607 324 m 0
 607 277 575 242 521 242 c 0
 446 242 430 307 428 367 c 1
 93 367 l 1
 93 90 254 -19 522 -19 c 0
 776 -19 928 134 928 313 c 0
 928 424 867 499 789 557 c 1
 884 628 927 710 927 792 c 0
 927 909 840 1024 690 1101 c 0
 564 1166 434 1212 434 1264 c 0
 434 1311 470 1346 530 1346 c 0
 605 1346 621 1281 623 1221 c 1
 928 1221 l 1
 928 1498 775 1607 519 1607 c 0
 265 1607 113 1454 113 1275 c 0
 113 1164 173 1088 251 1031 c 1
 157 960 113 877 113 795 c 0
 113 679 199 564 349 488 c 0
 476 423 607 377 607 324 c 0
611 681 m 1
 488 721 400 759 400 813 c 0
 400 842 415 876 450 917 c 1
 568 877 652 834 652 780 c 0
 652 750 639 718 611 681 c 1
EndSplineSet
EndChar

StartChar: semicolon
Encoding: 59 59 211
Width: 478
VWidth: 0
Flags: W
LayerCount: 2
Fore
SplineSet
51 236 m 1
 178 236 l 1
 112 0 l 1
 323 0 l 1
 425 245 l 1
 425 534 l 1
 51 534 l 1
 51 236 l 1
51 976 m 1
 409 976 l 1
 409 1274 l 1
 51 1274 l 1
 51 976 l 1
EndSplineSet
EndChar

StartChar: seven
Encoding: 55 55 212
Width: 1018
VWidth: 0
Flags: W
LayerCount: 2
Fore
SplineSet
141 1 m 1
 187 1 247 0 306 0 c 0
 424 0 539 1 539 1 c 1
 590 794 923 1173 954 1451 c 1
 954 1706 l 1
 66 1706 l 1
 66 1389 l 1
 563 1389 l 1
 485 1098 184 633 141 1 c 1
EndSplineSet
EndChar

StartChar: six
Encoding: 54 54 213
Width: 1075
VWidth: 0
Flags: W
LayerCount: 2
Fore
SplineSet
545 -21 m 0
 932 -21 1004 247 1004 557 c 0
 1004 915 918 1087 641 1087 c 0
 490 1087 444 986 444 986 c 1
 444 1275 l 2
 444 1316 444 1398 549 1398 c 0
 654 1398 635 1235 637 1178 c 1
 1006 1178 l 1
 1006 1178 1006 1285 1006 1363 c 0
 1006 1589 749 1698 555 1698 c 0
 68 1698 70 1332 70 965 c 2
 70 567 l 2
 70 236 120 -21 545 -21 c 0
444 664 m 2
 444 723 463 785 537 785 c 0
 605 785 618 703 618 645 c 2
 618 475 l 2
 618 394 622 293 532 293 c 0
 481 293 444 328 444 419 c 2
 444 664 l 2
EndSplineSet
EndChar

StartChar: slash
Encoding: 47 47 214
Width: 812
VWidth: 0
Flags: W
LayerCount: 2
Fore
SplineSet
382 0 m 1
 793 1767 l 1
 429 1767 l 1
 19 0 l 1
 382 0 l 1
EndSplineSet
EndChar

StartChar: sterling
Encoding: 163 163 216
Width: 1021
VWidth: 0
Flags: W
LayerCount: 2
Fore
SplineSet
51 673 m 1
 160 673 l 1
 161 634 162 599 162 568 c 0
 162 438 144 368 46 281 c 1
 46 0 l 1
 928 0 l 1
 928 311 l 1
 458 311 l 1
 458 311 534 382 540 571 c 1
 539 673 l 1
 838 673 l 1
 838 905 l 1
 539 905 l 1
 538 1184 l 1
 542 1262 567 1296 599 1296 c 0
 644 1296 658 1253 658 1185 c 1
 967 1185 l 1
 967 1528 782 1607 631 1607 c 0
 167 1607 156 1261 156 905 c 1
 51 905 l 1
 51 673 l 1
EndSplineSet
EndChar

StartChar: t
Encoding: 116 116 218
Width: 616
VWidth: 0
Flags: W
LayerCount: 2
Fore
SplineSet
129 1761 m 1
 477 1761 l 1
 477 1442 l 1
 541 1442 l 1
 541 1169 l 1
 477 1169 l 1
 477 1164 477 328 477 325 c 0
 477 284 478 248 515 248 c 0
 522 248 531 249 541 252 c 1
 541 8 l 1
 541 8 465 -18 350 -18 c 0
 150 -18 129 115 129 231 c 2
 129 1169 l 1
 74 1169 l 1
 74 1442 l 1
 129 1442 l 1
 129 1761 l 1
EndSplineSet
EndChar

StartChar: thorn
Encoding: 254 254 219
Width: 1008
VWidth: 0
Flags: W
LayerCount: 2
Fore
SplineSet
435 160 m 1
 492 6 585 -18 646 -18 c 0
 718 -18 962 8 962 391 c 2
 962 1114 l 2
 962 1512 730 1519 635 1519 c 0
 592 1519 521 1515 435 1427 c 1
 435 1769 l 1
 67 1769 l 1
 67 -185 l 1
 435 -185 l 1
 435 160 l 1
435 1085 m 2
 435 1219 482 1239 523 1239 c 0
 568 1239 599 1214 599 1081 c 2
 599 457 l 2
 599 297 583 263 525 263 c 0
 470 263 435 297 435 457 c 2
 435 1085 l 2
EndSplineSet
EndChar

StartChar: three
Encoding: 51 51 220
Width: 1057
VWidth: 0
Flags: W
LayerCount: 2
Fore
SplineSet
512 -19 m 0
 863 -19 989 186 989 515 c 0
 989 830 939 878 820 934 c 1
 963 984 985 1116 985 1257 c 0
 985 1640 747 1712 535 1712 c 0
 274 1712 78 1620 76 1257 c 0
 76 1247 78 1197 78 1197 c 1
 442 1197 l 1
 442 1197 442 1246 442 1249 c 0
 452 1322 436 1398 537 1398 c 0
 610 1398 623 1313 623 1253 c 0
 623 1120 545 1083 436 1083 c 1
 436 776 l 1
 448 778 459 778 470 778 c 0
 625 778 620 601 620 515 c 0
 620 330 592 297 529 297 c 0
 492 297 428 298 428 459 c 0
 428 558 428 639 428 639 c 1
 67 639 l 1
 67 460 l 2
 67 116 224 -19 512 -19 c 0
EndSplineSet
EndChar

StartChar: uni00B3
Encoding: 179 179 222
Width: 623
VWidth: 0
Flags: W
LayerCount: 2
Fore
SplineSet
300 635 m 0
 497 635 568 750 568 935 c 0
 568 1112 540 1139 473 1170 c 1
 553 1198 565 1272 565 1351 c 0
 565 1566 432 1606 313 1606 c 0
 167 1606 57 1555 56 1351 c 0
 56 1346 57 1317 57 1317 c 1
 261 1317 l 1
 267 1365 246 1430 314 1430 c 0
 355 1430 362 1383 362 1349 c 0
 362 1274 319 1254 257 1254 c 1
 257 1081 l 1
 264 1082 270 1082 277 1082 c 0
 363 1082 361 983 361 935 c 0
 361 831 345 813 310 813 c 0
 289 813 253 813 253 903 c 0
 253 959 253 1004 253 1004 c 1
 51 1004 l 1
 51 904 l 2
 51 711 139 635 300 635 c 0
EndSplineSet
EndChar

StartChar: tilde
Encoding: 308 732 223
Width: 1015
VWidth: 0
Flags: W
LayerCount: 2
Fore
SplineSet
360 1702 m 0
 334 1702 308 1684 282 1623 c 1
 40 1739 l 1
 119 1935 225 2038 370 2038 c 0
 477 2038 561 1930 653 1930 c 0
 678 1930 705 1948 732 2009 c 1
 974 1893 l 1
 894 1697 787 1592 642 1592 c 0
 521 1592 449 1702 360 1702 c 0
EndSplineSet
EndChar

StartChar: trademark
Encoding: 309 8482 224
Width: 1857
VWidth: 0
Flags: W
LayerCount: 2
Fore
SplineSet
57 1593 m 1
 57 1361 l 1
 215 1361 l 1
 215 386 l 1
 482 386 l 1
 482 1361 l 1
 641 1361 l 1
 641 1593 l 1
 57 1593 l 1
1393 386 m 1
 1153 386 l 1
 1006 1257 l 1
 1006 386 l 1
 750 386 l 1
 750 1593 l 1
 1156 1593 l 1
 1269 963 l 1
 1381 1593 l 1
 1790 1593 l 1
 1790 386 l 1
 1531 386 l 1
 1531 1257 l 1
 1393 386 l 1
EndSplineSet
EndChar

StartChar: two
Encoding: 50 50 225
Width: 1073
VWidth: 0
Flags: W
LayerCount: 2
Fore
SplineSet
76 0 m 1
 989 0 l 1
 989 322 l 1
 509 322 l 1
 663 621 1001 813 1001 1255 c 0
 1001 1563 818 1716 539 1716 c 0
 174 1716 72 1524 72 1139 c 0
 72 1059 76 1034 76 1034 c 1
 446 1034 l 1
 446 1243 l 2
 446 1305 458 1395 534 1395 c 0
 613 1395 629 1326 629 1249 c 0
 629 1088 568 998 539 963 c 0
 300 677 76 427 76 82 c 2
 76 0 l 1
EndSplineSet
EndChar

StartChar: uni00B2
Encoding: 178 178 226
Width: 642
VWidth: 0
Flags: W
LayerCount: 2
Fore
SplineSet
59 631 m 1
 578 631 l 1
 578 814 l 1
 305 814 l 1
 393 984 585 1093 585 1344 c 0
 585 1519 481 1606 322 1606 c 0
 115 1606 57 1497 57 1278 c 0
 57 1233 59 1218 59 1218 c 1
 269 1218 l 1
 269 1337 l 2
 269 1372 276 1424 320 1424 c 0
 364 1424 373 1384 373 1341 c 0
 373 1249 339 1198 322 1178 c 0
 187 1016 59 874 59 678 c 2
 59 631 l 1
EndSplineSet
EndChar

StartChar: u
Encoding: 117 117 227
Width: 1013
VWidth: 0
Flags: W
LayerCount: 2
Fore
SplineSet
591 1500 m 1
 589 455 l 2
 589 385 595 264 505 264 c 0
 429 264 425 317 425 455 c 2
 425 1500 l 1
 65 1500 l 1
 65 383 l 2
 65 172 95 -18 358 -18 c 0
 452 -18 529 7 589 160 c 1
 589 108 589 0 589 0 c 1
 947 0 l 1
 947 1500 l 1
 591 1500 l 1
EndSplineSet
EndChar

StartChar: underscore
Encoding: 95 95 232
Width: 650
VWidth: 0
Flags: W
LayerCount: 2
Fore
SplineSet
0 -232 m 1
 651 -232 l 1
 651 0 l 1
 0 0 l 1
 0 -232 l 1
EndSplineSet
EndChar

StartChar: v
Encoding: 118 118 267
Width: 1010
VWidth: 0
Flags: W
LayerCount: 2
Fore
SplineSet
707 0 m 1
 293 0 l 1
 52 1500 l 1
 411 1500 l 1
 497 618 l 1
 594 1500 l 1
 952 1500 l 1
 707 0 l 1
EndSplineSet
EndChar

StartChar: w
Encoding: 119 119 268
Width: 1538
VWidth: 0
Flags: W
LayerCount: 2
Fore
SplineSet
946 1500 m 1
 1030 694 l 1
 1122 1500 l 1
 1479 1500 l 1
 1268 0 l 1
 852 0 l 1
 764 801 l 1
 680 0 l 1
 264 0 l 1
 53 1500 l 1
 410 1500 l 1
 499 694 l 1
 586 1500 l 1
 946 1500 l 1
EndSplineSet
EndChar

StartChar: x
Encoding: 120 120 269
Width: 1075
VWidth: 0
Flags: W
LayerCount: 2
Fore
SplineSet
540 684 m 1
 419 0 l 1
 69 0 l 1
 233 843 l 1
 105 1501 l 1
 453 1501 l 1
 541 989 l 1
 629 1501 l 1
 983 1501 l 1
 856 834 l 1
 1006 0 l 1
 655 0 l 1
 540 684 l 1
EndSplineSet
EndChar

StartChar: y
Encoding: 121 121 270
Width: 1018
VWidth: 0
Flags: W
LayerCount: 2
Fore
SplineSet
86 -186 m 1
 451 -186 l 2
 580 -186 678 -186 707 -14 c 2
 965 1501 l 1
 610 1501 l 1
 502 699 l 1
 412 1501 l 1
 59 1501 l 1
 270 155 l 2
 273 135 275 117 275 103 c 0
 275 59 254 41 178 41 c 2
 86 41 l 1
 86 -186 l 1
EndSplineSet
EndChar

StartChar: yen
Encoding: 165 165 272
Width: 1022
VWidth: 0
Flags: W
LayerCount: 2
Fore
SplineSet
204 475 m 1
 342 475 l 1
 342 408 l 1
 204 408 l 1
 204 176 l 1
 342 176 l 1
 342 0 l 1
 674 0 l 1
 674 176 l 1
 808 176 l 1
 808 408 l 1
 674 408 l 1
 674 475 l 1
 808 475 l 1
 808 699 l 1
 720 699 l 1
 954 1593 l 1
 606 1593 l 1
 508 1053 l 1
 410 1593 l 1
 61 1593 l 1
 296 699 l 1
 204 699 l 1
 204 475 l 1
EndSplineSet
EndChar

StartChar: z
Encoding: 122 122 273
Width: 954
VWidth: 0
Flags: W
LayerCount: 2
Fore
SplineSet
72 0 m 1
 856 0 l 1
 856 301 l 1
 479 301 l 1
 881 1194 l 1
 881 1500 l 1
 111 1500 l 1
 111 1194 l 1
 485 1194 l 1
 72 272 l 1
 72 0 l 1
EndSplineSet
EndChar

StartChar: zero
Encoding: 48 48 275
Width: 1075
VWidth: 0
Flags: W
LayerCount: 2
Fore
SplineSet
536 -18 m 0
 307 -18 70 121 70 482 c 2
 70 1231 l 2
 70 1567 236 1729 536 1729 c 0
 836 1729 1002 1567 1002 1231 c 2
 1002 482 l 2
 1002 121 765 -18 536 -18 c 0
536 330 m 0
 573 330 623 365 623 447 c 2
 623 1273 l 2
 623 1338 622 1424 536 1424 c 0
 450 1424 449 1338 449 1273 c 2
 449 447 l 2
 449 365 499 330 536 330 c 0
EndSplineSet
EndChar

StartChar: uni030F
Encoding: 341 783 276
Width: 748
VWidth: 0
Flags: W
LayerCount: 2
Fore
SplineSet
232 1236 m 1
 533 1665 l 1
 340 1773 l 1
 119 1294 l 1
 232 1236 l 1
534 1236 m 1
 835 1665 l 1
 642 1773 l 1
 421 1294 l 1
 534 1236 l 1
EndSplineSet
EndChar

